<svg width="140" height="32" viewBox="0 0 140 32" xmlns="http://www.w3.org/2000/svg">
  <!-- 盾牌背景 -->
  <path d="M16 2L4 7v9c0 5.2 3.8 10.1 9 11.9l3 1.1 3-1.1c5.2-1.8 9-6.7 9-11.9V7L16 2z" fill="url(#gradient1)"/>
  
  <!-- Share 图标 -->
  <path d="M16 8c1.5 0 2.7 1.2 2.7 2.7S17.5 13.4 16 13.4s-2.7-1.2-2.7-2.7S14.5 8 16 8zm0 10.6c-1.5 0-2.7-1.2-2.7-2.7s1.2-2.7 2.7-2.7 2.7 1.2 2.7 2.7-1.2 2.7-2.7 2.7z" fill="white"/>
  
  <!-- AI 文字 -->
  <text x="36" y="22" font-family="Arial, sans-serif" font-weight="bold" font-size="20" fill="white">ShareAI</text>
  
  <!-- 渐变定义 -->
  <defs>
    <linearGradient id="gradient1" x1="0%" y1="0%" x2="100%" y2="100%">
      <stop offset="0%" style="stop-color:#007AFF"/>
      <stop offset="100%" style="stop-color:#40c057"/>
    </linearGradient>
  </defs>
</svg> 